<?xml version="1.0" encoding="UTF-8"?><svg xmlns="http://www.w3.org/2000/svg" xmlns:xlink="http://www.w3.org/1999/xlink" fill-opacity="1" color-rendering="auto" color-interpolation="auto" text-rendering="auto" stroke="black" stroke-linecap="square" width="593" stroke-miterlimit="10" shape-rendering="auto" stroke-opacity="1" fill="black" stroke-dasharray="none" font-weight="normal" stroke-width="1" height="270" font-family="'Dialog'" font-style="normal" stroke-linejoin="miter" font-size="12px" stroke-dashoffset="0" image-rendering="auto">
  <!--Generated by ySVG 2.5-->
  <defs id="genericDefs"/>
  <g>
    <g fill="white" text-rendering="geometricPrecision" shape-rendering="geometricPrecision" transform="translate(-422,-219)" stroke="white">
      <rect x="422" width="593" height="270" y="219" clip-path="url(#clipPath2)" stroke="none"/>
    </g>
    <g text-rendering="geometricPrecision" stroke-miterlimit="1.45" shape-rendering="geometricPrecision" transform="matrix(1,0,0,1,-422,-219)" stroke-linecap="butt">
      <path fill="none" d="M779.3342 302.5088 L887.6942 302.5088 L875.6542 341.3087 L767.2942 341.3087 Z" fill-rule="evenodd" clip-path="url(#clipPath2)"/>
      <text x="788.9131" xml:space="preserve" y="319.272" clip-path="url(#clipPath2)" font-family="sans-serif" stroke="none">Cypher→ SQL</text>
      <text x="803.8135" xml:space="preserve" y="333.9732" clip-path="url(#clipPath2)" font-family="sans-serif" stroke="none">leképzés</text>
      <rect fill="none" x="596.894" width="106.896" height="90.448" y="291.7567" clip-path="url(#clipPath2)"/>
      <text x="601.3224" xml:space="preserve" y="334.344" clip-path="url(#clipPath2)" font-family="sans-serif" stroke="none">Neo4j-kompatibilis</text>
      <text x="635.3391" xml:space="preserve" y="349.0452" clip-path="url(#clipPath2)" font-family="sans-serif" stroke="none">driver</text>
    </g>
    <g text-rendering="geometricPrecision" shape-rendering="geometricPrecision" transform="matrix(1,0,0,1,529.1984,93.4349)">
      <g clip-path="url(#clipPath3)">
        <svg xml:space="preserve" opacity="1" writing-mode="lr-tb" stop-color="rgb(0, 0, 0)" shape-rendering="auto" glyph-orientation-horizontal="0deg" color-profile="auto" lighting-color="rgb(255, 255, 255)" color="rgb(0, 0, 0)" font-weight="400" alignment-baseline="auto" font-style="normal" version="1.1" color-interpolation-filters="linearrgb" text-anchor="start" stroke-linecap="butt" color-interpolation="srgb" font-variant="normal" word-spacing="normal" fill-opacity="1" text-rendering="auto" clip-path="none" text-decoration="none" letter-spacing="normal" viewBox="0 0 40 48" glyph-orientation-vertical="auto" display="inline" font-size-adjust="none" overflow="visible" fill="rgb(0, 0, 0)" font-stretch="normal" stroke-dasharray="none" stroke-miterlimit="4" stop-opacity="1" color-rendering="auto" font-size="12" pointer-events="visiblepainted" mask="none" direction="ltr" baseline-shift="baseline" enable-background="new 0 0 40 48" fill-rule="nonzero" image-rendering="auto" stroke-dashoffset="0" width="40px" marker-end="none" clip="auto" cursor="auto" stroke="none" filter="none" visibility="visible" kerning="auto" stroke-width="1" font-family="&quot;Arial&quot;,&quot;Helvetica&quot;,sans-serif" flood-opacity="1" clip-rule="nonzero" src="none" height="48px" unicode-bidi="normal" stroke-linejoin="miter" stroke-opacity="1" flood-color="rgb(0, 0, 0)" dominant-baseline="auto" marker-start="none" x="0px" marker-mid="none" y="0px">
<defs>
<clipPath clipPathUnits="userSpaceOnUse" id="clipPath1"><path d="M0 0 L593 0 L593 270 L0 270 L0 0 Z"/></clipPath><clipPath clipPathUnits="userSpaceOnUse" id="clipPath2"><path d="M422 219 L1015 219 L1015 489 L422 489 L422 219 Z"/></clipPath><clipPath clipPathUnits="userSpaceOnUse" id="clipPath3"><path d="M-529.1984 -93.4349 L63.8016 -93.4349 L63.8016 176.5651 L-529.1984 176.5651 L-529.1984 -93.4349 Z"/></clipPath></defs>
<linearGradient gradientTransform="matrix(1 0 0 1 -370.2002 -614.5742)" x1="370.2002" x2="409.4502" gradientUnits="userSpaceOnUse" y1="655.0938" y2="655.0938" id="svg1.SVGID_1_">
	<stop offset="0" style="stop-color:#4D4D4D"/>
	<stop offset="0.0558" style="stop-color:#5F5F5F"/>
	<stop offset="0.2103" style="stop-color:#8D8D8D"/>
	<stop offset="0.3479" style="stop-color:#AEAEAE"/>
	<stop offset="0.4623" style="stop-color:#C2C2C2"/>
	<stop offset="0.5394" style="stop-color:#C9C9C9"/>
	<stop offset="0.6247" style="stop-color:#C5C5C5"/>
	<stop offset="0.7072" style="stop-color:#BABABA"/>
	<stop offset="0.7885" style="stop-color:#A6A6A6"/>
	<stop offset="0.869" style="stop-color:#8B8B8B"/>
	<stop offset="0.9484" style="stop-color:#686868"/>
	<stop offset="1" style="stop-color:#4D4D4D"/>
</linearGradient>
<path fill="url(#svg1.SVGID_1_)" d="M19.625,37.613C8.787,37.613,0,35.738,0,33.425v10c0,2.313,8.787,4.188,19.625,4.188  c10.839,0,19.625-1.875,19.625-4.188v-10C39.25,35.738,30.464,37.613,19.625,37.613z"/>
<linearGradient gradientTransform="matrix(1 0 0 1 -370.2002 -614.5742)" x1="370.2002" x2="409.4502" gradientUnits="userSpaceOnUse" y1="649.0938" y2="649.0938" id="svg1.SVGID_2_">
	<stop offset="0" style="stop-color:#B3B3B3"/>
	<stop offset="0.0171" style="stop-color:#B6B6B6"/>
	<stop offset="0.235" style="stop-color:#D7D7D7"/>
	<stop offset="0.4168" style="stop-color:#ffffff"/>
	<stop offset="0.5394" style="stop-color:#F2F2F2"/>
	<stop offset="0.6579" style="stop-color:#EEEEEE"/>
	<stop offset="0.7724" style="stop-color:#E3E3E3"/>
	<stop offset="0.8853" style="stop-color:#CFCFCF"/>
	<stop offset="0.9965" style="stop-color:#B4B4B4"/>
	<stop offset="1" style="stop-color:#B3B3B3"/>
</linearGradient>
<path fill="url(#svg1.SVGID_2_)" d="M19.625,37.613c10.839,0,19.625-1.875,19.625-4.188l-1.229-2c0,2.168-8.235,3.927-18.396,3.927  c-9.481,0-17.396-1.959-18.396-3.927l-1.229,2C0,35.738,8.787,37.613,19.625,37.613z"/>
<linearGradient gradientTransform="matrix(1 0 0 1 -370.2002 -614.5742)" x1="371.4297" x2="408.2217" gradientUnits="userSpaceOnUse" y1="646" y2="646" id="svg1.SVGID_3_">
	<stop offset="0" style="stop-color:#C9C9C9"/>
	<stop offset="1" style="stop-color:#808080"/>
</linearGradient>
<ellipse rx="18.396" fill="url(#svg1.SVGID_3_)" ry="3.926" cx="19.625" cy="31.425"/>
<linearGradient gradientTransform="matrix(1 0 0 1 -370.2002 -614.5742)" x1="370.2002" x2="409.4502" gradientUnits="userSpaceOnUse" y1="641.0938" y2="641.0938" id="svg1.SVGID_4_">
	<stop offset="0" style="stop-color:#4D4D4D"/>
	<stop offset="0.0558" style="stop-color:#5F5F5F"/>
	<stop offset="0.2103" style="stop-color:#8D8D8D"/>
	<stop offset="0.3479" style="stop-color:#AEAEAE"/>
	<stop offset="0.4623" style="stop-color:#C2C2C2"/>
	<stop offset="0.5394" style="stop-color:#C9C9C9"/>
	<stop offset="0.6247" style="stop-color:#C5C5C5"/>
	<stop offset="0.7072" style="stop-color:#BABABA"/>
	<stop offset="0.7885" style="stop-color:#A6A6A6"/>
	<stop offset="0.869" style="stop-color:#8B8B8B"/>
	<stop offset="0.9484" style="stop-color:#686868"/>
	<stop offset="1" style="stop-color:#4D4D4D"/>
</linearGradient>
<path fill="url(#svg1.SVGID_4_)" d="M19.625,23.613C8.787,23.613,0,21.738,0,19.425v10c0,2.313,8.787,4.188,19.625,4.188  c10.839,0,19.625-1.875,19.625-4.188v-10C39.25,21.738,30.464,23.613,19.625,23.613z"/>
<linearGradient gradientTransform="matrix(1 0 0 1 -370.2002 -614.5742)" x1="370.2002" x2="409.4502" gradientUnits="userSpaceOnUse" y1="635.0938" y2="635.0938" id="svg1.SVGID_5_">
	<stop offset="0" style="stop-color:#B3B3B3"/>
	<stop offset="0.0171" style="stop-color:#B6B6B6"/>
	<stop offset="0.235" style="stop-color:#D7D7D7"/>
	<stop offset="0.4168" style="stop-color:#ffffff"/>
	<stop offset="0.5394" style="stop-color:#F2F2F2"/>
	<stop offset="0.6579" style="stop-color:#EEEEEE"/>
	<stop offset="0.7724" style="stop-color:#E3E3E3"/>
	<stop offset="0.8853" style="stop-color:#CFCFCF"/>
	<stop offset="0.9965" style="stop-color:#B4B4B4"/>
	<stop offset="1" style="stop-color:#B3B3B3"/>
</linearGradient>
<path fill="url(#svg1.SVGID_5_)" d="M19.625,23.613c10.839,0,19.625-1.875,19.625-4.188l-1.229-2c0,2.168-8.235,3.926-18.396,3.926  c-9.481,0-17.396-1.959-18.396-3.926l-1.229,2C0,21.738,8.787,23.613,19.625,23.613z"/>
<linearGradient gradientTransform="matrix(1 0 0 1 -370.2002 -614.5742)" x1="371.4297" x2="408.2217" gradientUnits="userSpaceOnUse" y1="632" y2="632" id="svg1.SVGID_6_">
	<stop offset="0" style="stop-color:#C9C9C9"/>
	<stop offset="1" style="stop-color:#808080"/>
</linearGradient>
<ellipse rx="18.396" fill="url(#svg1.SVGID_6_)" ry="3.926" cx="19.625" cy="17.426"/>
<linearGradient gradientTransform="matrix(1 0 0 1 -370.2002 -614.5742)" x1="370.2002" x2="409.4502" gradientUnits="userSpaceOnUse" y1="627.5938" y2="627.5938" id="svg1.SVGID_7_">
	<stop offset="0" style="stop-color:#4D4D4D"/>
	<stop offset="0.0558" style="stop-color:#5F5F5F"/>
	<stop offset="0.2103" style="stop-color:#8D8D8D"/>
	<stop offset="0.3479" style="stop-color:#AEAEAE"/>
	<stop offset="0.4623" style="stop-color:#C2C2C2"/>
	<stop offset="0.5394" style="stop-color:#C9C9C9"/>
	<stop offset="0.6247" style="stop-color:#C5C5C5"/>
	<stop offset="0.7072" style="stop-color:#BABABA"/>
	<stop offset="0.7885" style="stop-color:#A6A6A6"/>
	<stop offset="0.869" style="stop-color:#8B8B8B"/>
	<stop offset="0.9484" style="stop-color:#686868"/>
	<stop offset="1" style="stop-color:#4D4D4D"/>
</linearGradient>
<path fill="url(#svg1.SVGID_7_)" d="M19.625,10.113C8.787,10.113,0,8.238,0,5.925v10c0,2.313,8.787,4.188,19.625,4.188  c10.839,0,19.625-1.875,19.625-4.188v-10C39.25,8.238,30.464,10.113,19.625,10.113z"/>
<linearGradient gradientTransform="matrix(1 0 0 1 -370.2002 -614.5742)" x1="370.2002" x2="409.4502" gradientUnits="userSpaceOnUse" y1="621.5938" y2="621.5938" id="svg1.SVGID_8_">
	<stop offset="0" style="stop-color:#B3B3B3"/>
	<stop offset="0.0171" style="stop-color:#B6B6B6"/>
	<stop offset="0.235" style="stop-color:#D7D7D7"/>
	<stop offset="0.4168" style="stop-color:#ffffff"/>
	<stop offset="0.5394" style="stop-color:#F2F2F2"/>
	<stop offset="0.6579" style="stop-color:#EEEEEE"/>
	<stop offset="0.7724" style="stop-color:#E3E3E3"/>
	<stop offset="0.8853" style="stop-color:#CFCFCF"/>
	<stop offset="0.9965" style="stop-color:#B4B4B4"/>
	<stop offset="1" style="stop-color:#B3B3B3"/>
</linearGradient>
<path fill="url(#svg1.SVGID_8_)" d="M19.625,10.113c10.839,0,19.625-1.875,19.625-4.188l-1.229-2c0,2.168-8.235,3.926-18.396,3.926  c-9.481,0-17.396-1.959-18.396-3.926L0,5.925C0,8.238,8.787,10.113,19.625,10.113z"/>
<linearGradient gradientTransform="matrix(1 0 0 1 -370.2002 -614.5742)" x1="371.4297" x2="408.2217" gradientUnits="userSpaceOnUse" y1="618.5" y2="618.5" id="svg1.SVGID_9_">
	<stop offset="0" style="stop-color:#C9C9C9"/>
	<stop offset="1" style="stop-color:#808080"/>
</linearGradient>
<ellipse rx="18.396" fill="url(#svg1.SVGID_9_)" ry="3.926" cx="19.625" cy="3.926"/>
<path fill="#FFFFFF" d="M31.291,46.792c0,0-4.313,0.578-7.249,0.694  C20.917,47.613,15,47.613,15,47.613l-2.443-10.279l-0.119-2.283l-1.231-1.842L9.789,23.024l-0.082-0.119L9.3,20.715l-1.45-1.44  L5.329,8.793c0,0,5.296,0.882,7.234,1.07s8.375,0.25,8.375,0.25l3,9.875l-0.25,1.313l1.063,2.168l2.312,9.644l-0.375,1.875  l1.627,2.193L31.291,46.792z" enable-background="new    " opacity="0.24"/>
</svg>
      </g>
    </g>
    <g text-rendering="geometricPrecision" stroke-miterlimit="1.45" shape-rendering="geometricPrecision" font-family="sans-serif" transform="matrix(1,0,0,1,-422,-219)" stroke-linecap="butt">
      <text x="944.4738" xml:space="preserve" y="378.1124" clip-path="url(#clipPath2)" stroke="none">Adatbázis</text>
      <path fill="none" d="M703.7982 321.9088 L765.2866 321.9088" clip-path="url(#clipPath2)"/>
      <path d="M773.2866 321.9088 L761.2866 316.9088 L764.2866 321.9088 L761.2866 326.9088 Z" clip-path="url(#clipPath2)" stroke="none"/>
      <rect x="708.79" y="312.5582" clip-path="url(#clipPath2)" fill="white" width="42.6836" height="18.7012" stroke="none"/>
      <text x="710.79" xml:space="preserve" y="326.6226" clip-path="url(#clipPath2)" stroke="none">Cypher</text>
      <path fill="none" d="M882.3669 319.7008 L943.2141 319.7008" clip-path="url(#clipPath2)"/>
      <path d="M951.2141 319.7008 L939.2141 314.7008 L942.2141 319.7008 L939.2141 324.7008 Z" clip-path="url(#clipPath2)" stroke="none"/>
      <rect x="892.6942" y="310.3503" clip-path="url(#clipPath2)" fill="white" width="28.0117" height="18.7012" stroke="none"/>
      <text x="894.6942" xml:space="preserve" y="324.4147" clip-path="url(#clipPath2)" stroke="none">SQL</text>
      <path fill="none" d="M951.1677 354.0233 L711.7939 354.0233" clip-path="url(#clipPath2)"/>
      <path d="M703.7939 354.0233 L715.7939 359.0233 L712.7939 354.0233 L715.7939 349.0233 Z" clip-path="url(#clipPath2)" stroke="none"/>
      <text x="511.1935" xml:space="preserve" y="439.3577" clip-path="url(#clipPath2)" stroke="none">gráfreláció</text>
      <text x="492.1916" xml:space="preserve" y="454.0589" clip-path="url(#clipPath2)" stroke="none">(elemei: skalárok,</text>
      <text x="487.1818" xml:space="preserve" y="468.7601" clip-path="url(#clipPath2)" stroke="none">csomópontok, élek)</text>
    </g>
    <g fill="rgb(235,235,235)" text-rendering="geometricPrecision" shape-rendering="geometricPrecision" transform="matrix(1,0,0,1,-422,-219)" stroke="rgb(235,235,235)">
      <rect x="495.1672" width="63.2" height="21.6" y="381.3168" clip-path="url(#clipPath2)" stroke="none"/>
      <rect x="495.1672" y="365.0658" clip-path="url(#clipPath2)" fill="silver" width="63.2" height="16.251" stroke="none"/>
      <rect x="495.1672" y="365.0658" clip-path="url(#clipPath2)" fill="none" width="63.2" height="16.251" stroke="black" stroke-miterlimit="1.6"/>
    </g>
    <g font-size="10px" stroke-linecap="butt" transform="matrix(1,0,0,1,-422,-219)" text-rendering="geometricPrecision" font-family="sans-serif" shape-rendering="geometricPrecision" font-weight="bold" stroke-miterlimit="1.45">
      <text x="522.5972" xml:space="preserve" y="377.1195" clip-path="url(#clipPath2)" stroke="none">él</text>
      <rect fill="none" x="495.1672" width="63.2" height="21.6" y="381.3168" clip-path="url(#clipPath2)"/>
    </g>
    <g fill="white" text-rendering="geometricPrecision" shape-rendering="geometricPrecision" transform="matrix(1,0,0,1,-422,-219)" stroke="white">
      <circle r="5.8" clip-path="url(#clipPath2)" cx="505.9672" cy="392.1168" stroke="none"/>
    </g>
    <g text-rendering="geometricPrecision" stroke-miterlimit="1.45" shape-rendering="geometricPrecision" transform="matrix(1,0,0,1,-422,-219)" stroke-linecap="butt">
      <circle fill="none" r="5.8" clip-path="url(#clipPath2)" cx="505.9672" cy="392.1168"/>
    </g>
    <g fill="white" text-rendering="geometricPrecision" shape-rendering="geometricPrecision" transform="matrix(1,0,0,1,-422,-219)" stroke="white">
      <circle r="5.8" clip-path="url(#clipPath2)" cx="547.5672" cy="392.1168" stroke="none"/>
    </g>
    <g text-rendering="geometricPrecision" stroke-miterlimit="1.45" shape-rendering="geometricPrecision" transform="matrix(1,0,0,1,-422,-219)" stroke-linecap="butt">
      <circle fill="none" r="5.8" clip-path="url(#clipPath2)" cx="547.5672" cy="392.1168"/>
      <path fill="none" d="M511.7672 392.1168 L533.7672 392.1168" clip-path="url(#clipPath2)"/>
      <path d="M541.7672 392.1168 L529.7672 387.1168 L532.7672 392.1168 L529.7672 397.1168 Z" clip-path="url(#clipPath2)" stroke="none"/>
    </g>
    <g fill="rgb(235,235,235)" text-rendering="geometricPrecision" shape-rendering="geometricPrecision" transform="matrix(1,0,0,1,-422,-219)" stroke="rgb(235,235,235)">
      <rect x="495.1672" width="63.2" height="21.6" y="402.9168" clip-path="url(#clipPath2)" stroke="none"/>
    </g>
    <g text-rendering="geometricPrecision" stroke-miterlimit="1.45" shape-rendering="geometricPrecision" transform="matrix(1,0,0,1,-422,-219)" stroke-linecap="butt">
      <rect fill="none" x="495.1672" width="63.2" height="21.6" y="402.9168" clip-path="url(#clipPath2)"/>
    </g>
    <g fill="white" text-rendering="geometricPrecision" shape-rendering="geometricPrecision" transform="matrix(1,0,0,1,-422,-219)" stroke="white">
      <circle r="5.8" clip-path="url(#clipPath2)" cx="505.9672" cy="413.7168" stroke="none"/>
    </g>
    <g text-rendering="geometricPrecision" stroke-miterlimit="1.45" shape-rendering="geometricPrecision" transform="matrix(1,0,0,1,-422,-219)" stroke-linecap="butt">
      <circle fill="none" r="5.8" clip-path="url(#clipPath2)" cx="505.9672" cy="413.7168"/>
    </g>
    <g fill="white" text-rendering="geometricPrecision" shape-rendering="geometricPrecision" transform="matrix(1,0,0,1,-422,-219)" stroke="white">
      <circle r="5.8" clip-path="url(#clipPath2)" cx="547.5672" cy="413.7168" stroke="none"/>
    </g>
    <g text-rendering="geometricPrecision" stroke-miterlimit="1.45" shape-rendering="geometricPrecision" transform="matrix(1,0,0,1,-422,-219)" stroke-linecap="butt">
      <circle fill="none" r="5.8" clip-path="url(#clipPath2)" cx="547.5672" cy="413.7168"/>
    </g>
    <g fill="white" text-rendering="geometricPrecision" shape-rendering="geometricPrecision" transform="matrix(1,0,0,1,-422,-219)" stroke="white">
      <rect x="558.3672" width="24.88" height="21.6" y="381.3168" clip-path="url(#clipPath2)" stroke="none"/>
    </g>
    <g text-rendering="geometricPrecision" stroke-miterlimit="1.45" shape-rendering="geometricPrecision" transform="matrix(1,0,0,1,-422,-219)" stroke-linecap="butt">
      <rect fill="none" x="558.3672" width="24.88" height="21.6" y="381.3168" clip-path="url(#clipPath2)"/>
      <text x="565.2457" font-size="10px" y="396.045" clip-path="url(#clipPath2)" font-family="sans-serif" stroke="none" xml:space="preserve">24</text>
    </g>
    <g fill="silver" text-rendering="geometricPrecision" shape-rendering="geometricPrecision" transform="matrix(1,0,0,1,-422,-219)" stroke="silver">
      <rect x="558.3672" width="24.88" height="16.251" y="365.0658" clip-path="url(#clipPath2)" stroke="none"/>
      <rect x="558.3672" y="365.0658" clip-path="url(#clipPath2)" fill="none" width="24.88" height="16.251" stroke="black" stroke-miterlimit="1.6"/>
    </g>
    <g font-size="10px" stroke-linecap="butt" transform="matrix(1,0,0,1,-422,-219)" text-rendering="geometricPrecision" font-family="sans-serif" shape-rendering="geometricPrecision" font-weight="bold" stroke-miterlimit="1.45">
      <text x="561.3614" xml:space="preserve" y="377.1195" clip-path="url(#clipPath2)" stroke="none">attr.</text>
    </g>
    <g fill="white" text-rendering="geometricPrecision" shape-rendering="geometricPrecision" transform="matrix(1,0,0,1,-422,-219)" stroke="white">
      <rect x="558.3672" width="24.88" height="21.6" y="402.9168" clip-path="url(#clipPath2)" stroke="none"/>
    </g>
    <g text-rendering="geometricPrecision" stroke-miterlimit="1.45" shape-rendering="geometricPrecision" transform="matrix(1,0,0,1,-422,-219)" stroke-linecap="butt">
      <rect fill="none" x="558.3672" width="24.88" height="21.6" y="402.9168" clip-path="url(#clipPath2)"/>
      <text x="565.2457" font-size="10px" y="417.645" clip-path="url(#clipPath2)" font-family="sans-serif" stroke="none" xml:space="preserve">53</text>
      <path fill="none" d="M511.7672 413.7168 L533.7672 413.7168" clip-path="url(#clipPath2)"/>
      <path d="M541.7672 413.7168 L529.7672 408.7168 L532.7672 413.7168 L529.7672 418.7168 Z" clip-path="url(#clipPath2)" stroke="none"/>
      <text x="822.2594" xml:space="preserve" y="438.5812" clip-path="url(#clipPath2)" font-family="sans-serif" stroke="none">reláció</text>
      <text x="790.9235" xml:space="preserve" y="453.2824" clip-path="url(#clipPath2)" font-family="sans-serif" stroke="none">(JSON értékekkel)</text>
    </g>
    <g fill="white" text-rendering="geometricPrecision" shape-rendering="geometricPrecision" transform="matrix(1,0,0,1,-422,-219)" stroke="white">
      <rect x="849.5342" width="24.88" height="21.6" y="381.3168" clip-path="url(#clipPath2)" stroke="none"/>
    </g>
    <g text-rendering="geometricPrecision" stroke-miterlimit="1.45" shape-rendering="geometricPrecision" transform="matrix(1,0,0,1,-422,-219)" stroke-linecap="butt">
      <rect fill="none" x="849.5342" width="24.88" height="21.6" y="381.3168" clip-path="url(#clipPath2)"/>
      <text x="856.4127" font-size="10px" y="396.045" clip-path="url(#clipPath2)" font-family="sans-serif" stroke="none" xml:space="preserve">24</text>
    </g>
    <g fill="silver" text-rendering="geometricPrecision" shape-rendering="geometricPrecision" transform="matrix(1,0,0,1,-422,-219)" stroke="silver">
      <rect x="849.5342" width="24.88" height="16.251" y="365.0658" clip-path="url(#clipPath2)" stroke="none"/>
      <rect x="849.5342" y="365.0658" clip-path="url(#clipPath2)" fill="none" width="24.88" height="16.251" stroke="black" stroke-miterlimit="1.6"/>
    </g>
    <g font-size="10px" stroke-linecap="butt" transform="matrix(1,0,0,1,-422,-219)" text-rendering="geometricPrecision" font-family="sans-serif" shape-rendering="geometricPrecision" font-weight="bold" stroke-miterlimit="1.45">
      <text x="852.5284" xml:space="preserve" y="377.1195" clip-path="url(#clipPath2)" stroke="none">attr.</text>
    </g>
    <g fill="white" text-rendering="geometricPrecision" shape-rendering="geometricPrecision" transform="matrix(1,0,0,1,-422,-219)" stroke="white">
      <rect x="849.5342" width="24.88" height="21.6" y="402.9168" clip-path="url(#clipPath2)" stroke="none"/>
    </g>
    <g text-rendering="geometricPrecision" stroke-miterlimit="1.45" shape-rendering="geometricPrecision" transform="matrix(1,0,0,1,-422,-219)" stroke-linecap="butt">
      <rect fill="none" x="849.5342" width="24.88" height="21.6" y="402.9168" clip-path="url(#clipPath2)"/>
      <text x="856.4127" font-size="10px" y="417.645" clip-path="url(#clipPath2)" font-family="sans-serif" stroke="none" xml:space="preserve">53</text>
    </g>
    <g fill="rgb(235,235,235)" text-rendering="geometricPrecision" shape-rendering="geometricPrecision" transform="matrix(1,0,0,1,-422,-219)" stroke="rgb(235,235,235)">
      <rect x="805.4542" width="44.08" height="21.6" y="381.3168" clip-path="url(#clipPath2)" stroke="none"/>
    </g>
    <g text-rendering="geometricPrecision" stroke-miterlimit="1.45" shape-rendering="geometricPrecision" transform="matrix(1,0,0,1,-422,-219)" stroke-linecap="butt">
      <rect fill="none" x="805.4542" width="44.08" height="21.6" y="381.3168" clip-path="url(#clipPath2)"/>
      <text x="807.4747" font-size="10px" y="396.045" clip-path="url(#clipPath2)" font-family="sans-serif" stroke="none" xml:space="preserve">{edge:...}</text>
    </g>
    <g fill="silver" text-rendering="geometricPrecision" shape-rendering="geometricPrecision" transform="matrix(1,0,0,1,-422,-219)" stroke="silver">
      <rect x="805.4542" width="44.08" height="16.251" y="365.0658" clip-path="url(#clipPath2)" stroke="none"/>
      <rect x="805.4542" y="365.0658" clip-path="url(#clipPath2)" fill="none" width="44.08" height="16.251" stroke="black" stroke-miterlimit="1.6"/>
    </g>
    <g font-size="10px" stroke-linecap="butt" transform="matrix(1,0,0,1,-422,-219)" text-rendering="geometricPrecision" font-family="sans-serif" shape-rendering="geometricPrecision" font-weight="bold" stroke-miterlimit="1.45">
      <text x="823.3243" xml:space="preserve" y="377.1195" clip-path="url(#clipPath2)" stroke="none">él</text>
    </g>
    <g fill="rgb(235,235,235)" text-rendering="geometricPrecision" shape-rendering="geometricPrecision" transform="matrix(1,0,0,1,-422,-219)" stroke="rgb(235,235,235)">
      <rect x="805.4542" width="44.08" height="21.6" y="402.9168" clip-path="url(#clipPath2)" stroke="none"/>
    </g>
    <g text-rendering="geometricPrecision" stroke-miterlimit="1.45" shape-rendering="geometricPrecision" transform="matrix(1,0,0,1,-422,-219)" stroke-linecap="butt">
      <rect fill="none" x="805.4542" width="44.08" height="21.6" y="402.9168" clip-path="url(#clipPath2)"/>
      <text x="807.4747" font-size="10px" y="417.645" clip-path="url(#clipPath2)" font-family="sans-serif" stroke="none" xml:space="preserve">{edge:...}</text>
      <rect fill="none" x="437.4404" width="44.08" height="90.448" y="291.7567" clip-path="url(#clipPath2)"/>
      <text x="443.1385" xml:space="preserve" y="341.6946" clip-path="url(#clipPath2)" font-family="sans-serif" stroke="none">Kliens</text>
    </g>
    <g transform="matrix(1,0,0,1,-422,-219)" fill-opacity="0.902" fill="rgb(255,255,255)" text-rendering="geometricPrecision" shape-rendering="geometricPrecision" stroke="rgb(255,255,255)" stroke-opacity="0.902">
      <path d="M772.3265 234.1411 L793.4271 234.1411 L807.4943 248.2082 L807.4943 289.4047 L772.3265 289.4047 Z" stroke="none" clip-path="url(#clipPath2)"/>
    </g>
    <g text-rendering="geometricPrecision" stroke-miterlimit="1.45" stroke-dasharray="6,2" shape-rendering="geometricPrecision" transform="matrix(1,0,0,1,-422,-219)" stroke-linecap="butt">
      <path fill="none" d="M772.3265 234.1411 L793.4271 234.1411 L807.4943 248.2082 L807.4943 289.4047 L772.3265 289.4047 Z" clip-path="url(#clipPath2)"/>
      <path fill="none" d="M793.4271 234.1411 L793.4271 248.2082 L807.4943 248.2082" clip-path="url(#clipPath2)"/>
      <text x="776.2346" y="266.0669" clip-path="url(#clipPath2)" font-family="sans-serif" stroke-dasharray="none" stroke="none" xml:space="preserve">gTop</text>
      <text x="775.2385" y="280.768" clip-path="url(#clipPath2)" font-family="sans-serif" stroke-dasharray="none" stroke="none" xml:space="preserve">séma</text>
    </g>
    <g text-rendering="geometricPrecision" stroke-miterlimit="1.45" shape-rendering="geometricPrecision" transform="matrix(1,0,0,1,-422,-219)" stroke-linecap="butt">
      <path fill="none" d="M596.8854 354.0233 L489.5042 354.0233" clip-path="url(#clipPath2)"/>
      <path d="M481.5042 354.0233 L493.5042 359.0233 L490.5042 354.0233 L493.5042 349.0233 Z" clip-path="url(#clipPath2)" stroke="none"/>
      <path fill="none" d="M481.5275 321.9088 L588.8868 321.9088" clip-path="url(#clipPath2)"/>
      <path d="M596.8868 321.9088 L584.8868 316.9088 L587.8868 321.9088 L584.8868 326.9088 Z" clip-path="url(#clipPath2)" stroke="none"/>
      <rect x="517.8654" y="312.5582" clip-path="url(#clipPath2)" fill="white" width="42.6836" height="18.7012" stroke="none"/>
      <text x="519.8654" xml:space="preserve" y="326.6226" clip-path="url(#clipPath2)" font-family="sans-serif" stroke="none">Cypher</text>
      <path fill="none" stroke-dasharray="6,2" d="M807.4904 275.6649 L827.4942 275.7012 L827.4942 294.5503" clip-path="url(#clipPath2)"/>
      <path stroke-dasharray="6,2" d="M827.4942 302.5503 L832.4942 290.5503 L827.4942 293.5503 L822.4942 290.5503 Z" clip-path="url(#clipPath2)" stroke="none"/>
    </g>
  </g>
</svg>
